<svg width="1030" height="1030" viewBox="0 0 1030 1030" fill="none" xmlns="http://www.w3.org/2000/svg">
<path d="M381.504 221.894C371.058 222.173 360.642 225.541 352.416 232.266C344.191 238.983 338.846 248.381 337.526 258.632C336.207 268.884 338.998 279.329 345.254 287.91C351.509 296.498 360.733 302.395 370.767 305.31C370.767 305.31 370.767 305.31 370.767 305.31C388.71 311.775 413.368 321.86 435.805 330.801C507.908 358.425 573.718 386.998 666.34 399.335C674.415 399.965 682.268 400.664 695.363 399.651C698.236 399.402 702.267 398.935 706.569 398.094C708.725 397.674 710.979 397.161 713.359 396.511C715.854 395.835 719.292 394.75 722.588 393.425C732.284 390.731 764.923 370.476 768.825 335.601C770.295 323.412 771.869 308.521 764.996 287.052C759.146 265.558 734.767 240.209 712.966 233.667C669.596 220.727 649.137 231.844 629.102 238.722C617.377 243.774 611.89 248.812 608.444 251.611C605.537 254.105 603.218 256.369 601.076 258.58C597.141 262.688 594.905 265.349 592.046 268.824C587.574 274.31 583.377 279.996 579.748 285.111C572.412 295.477 565.972 305.418 559.726 315.425C547.377 335.271 536.079 355.092 525.257 375.156C503.712 415.218 484.213 456.022 466.778 498.235C436.175 584.884 390.915 665.113 421.696 793.085C429.153 811.375 435.786 833.872 466.407 857.306C481.73 868.709 505.86 875.359 524.998 873.212C544.275 871.39 557.655 865.101 568.67 858.93C609.27 833.529 626.329 807.166 645.769 781.183C682.086 729.073 709.125 676.042 733.862 621.474C756.465 578.116 714.536 524.568 669.773 532.508C632.414 538.161 594.1 541.745 561.893 538.31C541.953 536.759 526.735 528.524 527.043 528.033C521.26 518.74 512.179 511.84 501.536 508.997C490.895 506.154 479.606 507.577 470.103 512.983C460.6 518.388 453.607 527.364 450.613 537.964C447.616 548.565 448.907 559.897 453.938 569.616C453.938 569.616 453.938 569.616 453.938 569.616C480.589 613.699 519.567 620.495 547.825 627.021C595.534 635.532 638.649 633.451 681.228 630.082C655.56 634.772 630.695 603.932 643.864 577.794C618.073 626.404 589.241 674.826 557.404 715.529C542.219 735.169 522.261 755.096 513.141 758.937C511.369 759.827 511.33 758.839 516.157 758.178C520.855 757.274 530.452 759.808 534.141 762.717C538.14 765.543 537.854 766.159 537.089 764.352C536.297 762.701 534.874 759.296 533.504 754.801C512.052 653.917 643.99 431.214 679.295 359.464C680.982 358.762 682.378 358.529 681.666 358.682C680.914 358.615 677.823 359.958 667.861 356.637C657.82 354.145 642.938 338.634 640.831 328.998C637.894 319.389 639.229 317.13 638.997 317.29C640.358 304.743 648.649 290.15 656.114 283.396C659.93 279.661 663.753 276.966 666.934 275.098C669.6 273.533 671.945 272.452 673.935 271.654C678.091 270.031 680.067 269.683 681.523 269.371C682.981 269.09 683.705 269.031 683.966 269.005C684.924 268.979 681.441 269.047 677.86 268.689C618.338 261.191 538.619 240.675 462.748 229.87C437.128 226.256 412.558 222.595 381.504 221.894Z" fill="url(#paint0_linear_53_5)"/>
<path d="M306.061 221.894C295.615 222.173 285.199 225.541 276.973 232.266C268.748 238.983 263.403 248.381 262.084 258.632C260.764 268.884 263.555 279.329 269.811 287.91C276.066 296.498 285.29 302.395 295.324 305.31C295.324 305.31 295.324 305.31 295.324 305.31C313.267 311.775 337.925 321.86 360.362 330.801C432.465 358.425 498.275 386.998 590.897 399.335C598.972 399.965 606.825 400.664 619.92 399.651C622.793 399.402 626.824 398.935 631.126 398.094C633.282 397.674 635.536 397.161 637.916 396.511C640.412 395.835 643.85 394.75 647.145 393.425C656.841 390.731 689.48 370.476 693.382 335.601C694.852 323.412 696.426 308.521 689.553 287.052C683.703 265.558 659.324 240.209 637.524 233.667C594.153 220.727 573.694 231.844 553.659 238.722C541.934 243.774 536.447 248.812 533.001 251.611C530.094 254.105 527.775 256.369 525.633 258.58C521.698 262.688 519.462 265.349 516.603 268.824C512.131 274.31 507.934 279.996 504.305 285.111C496.969 295.477 490.529 305.418 484.283 315.425C471.934 335.271 460.636 355.092 449.814 375.156C428.269 415.218 408.77 456.022 391.335 498.235C360.732 584.884 315.472 665.113 346.254 793.085C353.71 811.375 360.344 833.872 390.964 857.306C406.287 868.709 430.417 875.359 449.555 873.212C468.832 871.39 482.212 865.101 493.227 858.93C533.827 833.529 550.887 807.166 570.326 781.183C606.643 729.073 633.682 676.042 658.419 621.474C681.022 578.116 639.093 524.568 594.33 532.508C556.971 538.161 518.657 541.745 486.45 538.31C466.51 536.759 451.292 528.524 451.6 528.033C445.817 518.74 436.736 511.84 426.093 508.997C415.452 506.154 404.163 507.577 394.66 512.983C385.157 518.388 378.164 527.364 375.17 537.964C372.173 548.565 373.464 559.897 378.495 569.616C378.495 569.616 378.495 569.616 378.495 569.616C405.146 613.699 444.124 620.495 472.382 627.021C520.091 635.532 563.206 633.451 605.785 630.082C580.117 634.772 555.252 603.932 568.421 577.794C542.63 626.404 513.799 674.826 481.961 715.529C466.776 735.169 446.818 755.096 437.698 758.937C435.926 759.827 435.887 758.839 440.714 758.178C445.412 757.274 455.009 759.808 458.698 762.717C462.697 765.543 462.411 766.159 461.646 764.352C460.854 762.701 459.431 759.296 458.061 754.801C436.609 653.917 568.547 431.214 603.852 359.464C605.539 358.762 606.935 358.529 606.223 358.682C605.471 358.615 602.38 359.958 592.418 356.637C582.378 354.145 567.495 338.634 565.389 328.998C562.451 319.389 563.786 317.13 563.555 317.29C564.915 304.743 573.206 290.15 580.671 283.396C584.487 279.661 588.31 276.966 591.492 275.098C594.157 273.533 596.502 272.452 598.493 271.654C602.648 270.031 604.625 269.683 606.08 269.371C607.538 269.09 608.262 269.031 608.524 269.005C609.481 268.979 605.998 269.047 602.417 268.689C542.895 261.191 463.176 240.675 387.305 229.87C361.685 226.256 337.115 222.595 306.061 221.894Z" fill="url(#paint1_linear_53_5)" fill-opacity="0.2"/>
<path d="M230.61 221.894C220.165 222.173 209.749 225.541 201.523 232.266C193.298 238.983 187.953 248.381 186.633 258.632C185.314 268.884 188.104 279.329 194.36 287.91C200.615 296.498 209.839 302.395 219.874 305.31C219.874 305.31 219.874 305.31 219.874 305.31C237.817 311.775 262.475 321.86 284.912 330.801C357.015 358.425 422.825 386.998 515.447 399.335C523.522 399.965 531.375 400.664 544.47 399.651C547.342 399.402 551.374 398.935 555.676 398.094C557.832 397.674 560.086 397.161 562.466 396.511C564.961 395.835 568.399 394.75 571.695 393.425C581.391 390.731 614.03 370.476 617.932 335.601C619.401 323.412 620.976 308.521 614.103 287.052C608.253 265.558 583.874 240.209 562.073 233.667C518.703 220.727 498.244 231.844 478.209 238.722C466.484 243.774 460.997 248.812 457.55 251.611C454.644 254.105 452.325 256.369 450.183 258.58C446.248 262.688 444.012 265.349 441.153 268.824C436.681 274.31 432.484 279.996 428.855 285.111C421.519 295.477 415.079 305.418 408.833 315.425C396.484 335.271 385.185 355.092 374.364 375.156C352.819 415.218 333.32 456.022 315.885 498.235C285.282 584.884 240.022 665.113 270.803 793.085C278.26 811.375 284.893 833.872 315.514 857.306C330.837 868.709 354.967 875.359 374.105 873.212C393.382 871.39 406.761 865.101 417.777 858.93C458.377 833.529 475.436 807.166 494.876 781.183C531.193 729.073 558.232 676.042 582.969 621.474C605.572 578.116 563.643 524.568 518.88 532.508C481.52 538.161 443.206 541.745 411 538.31C391.06 536.759 375.842 528.524 376.15 528.033C370.367 518.74 361.286 511.84 350.643 508.997C340.002 506.154 328.713 507.577 319.21 512.983C309.706 518.388 302.714 527.364 299.72 537.964C296.723 548.565 298.014 559.897 303.045 569.616C303.045 569.616 303.045 569.616 303.045 569.616C329.696 613.699 368.674 620.495 396.932 627.021C444.64 635.532 487.756 633.451 530.335 630.082C504.667 634.772 479.802 603.932 492.971 577.794C467.18 626.404 438.348 674.826 406.511 715.529C391.326 735.169 371.368 755.096 362.248 758.937C360.476 759.827 360.437 758.839 365.264 758.178C369.962 757.274 379.558 759.808 383.248 762.717C387.247 765.543 386.961 766.159 386.196 764.352C385.404 762.701 383.981 759.296 382.61 754.801C361.159 653.917 493.097 431.214 528.402 359.464C530.089 358.762 531.485 358.529 530.773 358.682C530.021 358.615 526.93 359.958 516.968 356.637C506.927 354.145 492.045 338.634 489.938 328.998C487.001 319.389 488.336 317.13 488.104 317.29C489.465 304.743 497.756 290.15 505.221 283.396C509.037 279.661 512.86 276.966 516.041 275.098C518.707 273.533 521.052 272.452 523.042 271.654C527.198 270.031 529.174 269.683 530.63 269.371C532.088 269.09 532.812 269.031 533.073 269.005C534.031 268.979 530.547 269.047 526.967 268.689C467.444 261.191 387.726 240.675 311.855 229.87C286.235 226.256 261.665 222.595 230.61 221.894Z" fill="url(#paint2_linear_53_5)" fill-opacity="0.1"/>
<defs>
<linearGradient id="paint0_linear_53_5" x1="558.019" y1="275.875" x2="482.53" y2="811.099" gradientUnits="userSpaceOnUse">
<stop/>
<stop offset="1" stop-color="white" stop-opacity="0"/>
</linearGradient>
<linearGradient id="paint1_linear_53_5" x1="482.576" y1="275.875" x2="407.087" y2="811.099" gradientUnits="userSpaceOnUse">
<stop/>
<stop offset="1" stop-color="white" stop-opacity="0"/>
</linearGradient>
<linearGradient id="paint2_linear_53_5" x1="407.126" y1="275.875" x2="331.637" y2="811.099" gradientUnits="userSpaceOnUse">
<stop/>
<stop offset="1" stop-color="white" stop-opacity="0"/>
</linearGradient>
</defs>
</svg>
